# xmcd
#
# Track frame offsets:
#	150
#	17462
#	33343
#	47834
#	66078
#	82524
#	94321
#	106335
#	121309
#	140919
#	156179
#	177981
#	196668
#	213612
#	229597
#
# Disc length: 3247 seconds
#
# Revision: 1
# Processed by: cddbd v1.5.2PL0 Copyright (c) Steve Scherf et al.
# Submitted via: audiograbber 1.83.01
#
DISCID=c20cad0f
DTITLE=Country - CB60156
DYEAR=1998
DGENRE=Karaoke
TTITLE0=Pass It On Down
TTITLE1=T.L.C.A.S.A.P.
TTITLE2=Take A Little Trip
TTITLE3=The Cheap Seats
TTITLE4=Elvis and Andy
TTITLE5=When and Where
TTITLE6=Skip A Rope
TTITLE7=Rag Top
TTITLE8=My Love
TTITLE9=There Goes My Heart
TTITLE10=I Should Have Been True
TTITLE11=Neon Blue
TTITLE12=Pretend
TTITLE13=Things You Said To Me
TTITLE14=You Make Life Good Again
EXTD=
EXTT0=
EXTT1=
EXTT2=
EXTT3=
EXTT4=
EXTT5=
EXTT6=
EXTT7=
EXTT8=
EXTT9=
EXTT10=
EXTT11=
EXTT12=
EXTT13=
EXTT14=
PLAYORDER=
